<?xml version="1.0" encoding="utf-8"?>
<!-- Generator: Adobe Illustrator 16.0.0, SVG Export Plug-In . SVG Version: 6.00 Build 0)  -->
<!DOCTYPE svg PUBLIC "-//W3C//DTD SVG 1.1//EN" "http://www.w3.org/Graphics/SVG/1.1/DTD/svg11.dtd">
<svg version="1.1" id="Layer_1" xmlns="http://www.w3.org/2000/svg" xmlns:xlink="http://www.w3.org/1999/xlink" x="0px" y="0px"
	 width="400px" height="129px" viewBox="0 0 400 129" enable-background="new 0 0 400 129" xml:space="preserve">
<text transform="matrix(1 0 0 1 559.7842 -191.2778)" font-family="'DegularDisplay-Medium'" font-size="8">6</text>
<g>
	<defs>
		<rect id="SVGID_1_" x="-200" y="-235" width="800" height="600"/>
	</defs>
	<clipPath id="SVGID_2_">
		<use xlink:href="#SVGID_1_"  overflow="visible"/>
	</clipPath>
	<polygon clip-path="url(#SVGID_2_)" points="562.74,313.302 561.148,315.682 559.538,313.302 558.462,313.302 560.544,316.242 
		558.295,319.496 559.337,319.496 561.121,316.81 562.898,319.496 564,319.496 561.725,316.232 563.79,313.302 	"/>
	<polygon clip-path="url(#SVGID_2_)" points="519.49,313.287 518.121,318.239 518.104,318.239 516.647,313.287 515.684,313.287 
		514.228,318.239 514.21,318.239 512.841,313.287 511.966,313.287 513.777,319.481 514.669,319.481 516.157,314.424 
		516.174,314.424 517.67,319.481 518.563,319.481 520.365,313.287 	"/>
	<polygon clip-path="url(#SVGID_2_)" points="522.144,313.302 523.037,313.302 523.037,315.874 526.458,315.874 526.458,313.302 
		527.353,313.302 527.353,319.496 526.458,319.496 526.458,316.662 523.037,316.662 523.037,319.496 522.144,319.496 	"/>
	<rect x="529.441" y="313.302" clip-path="url(#SVGID_2_)" width="0.84" height="6.194"/>
	<polygon clip-path="url(#SVGID_2_)" points="538.709,313.302 543.246,313.302 543.246,314.089 539.55,314.089 539.55,315.935 
		543.251,315.935 543.251,316.723 539.55,316.723 539.55,318.709 543.277,318.709 543.277,319.496 538.709,319.496 	"/>
	<polygon clip-path="url(#SVGID_2_)" points="545.327,313.302 549.76,313.302 549.76,314.089 546.168,314.089 546.168,316.032 
		549.55,316.032 549.55,316.818 546.168,316.818 546.168,319.496 545.327,319.496 	"/>
	<path clip-path="url(#SVGID_2_)" d="M554.22,319.506c-0.452,0-0.868-0.079-1.248-0.238s-0.705-0.378-0.977-0.657
		c-0.271-0.28-0.482-0.609-0.637-0.989c-0.153-0.38-0.229-0.79-0.229-1.23c0-0.441,0.076-0.853,0.229-1.231
		c0.154-0.38,0.366-0.71,0.637-0.989c0.271-0.278,0.597-0.498,0.977-0.656c0.38-0.159,0.796-0.239,1.248-0.239
		s0.868,0.08,1.248,0.239c0.38,0.158,0.705,0.378,0.976,0.656c0.271,0.279,0.483,0.609,0.637,0.989
		c0.153,0.379,0.23,0.79,0.23,1.231c0,0.44-0.077,0.851-0.23,1.23s-0.365,0.709-0.637,0.989c-0.271,0.279-0.596,0.498-0.976,0.657
		S554.672,319.506,554.22,319.506 M554.22,318.752c0.341,0,0.647-0.063,0.921-0.188c0.273-0.125,0.508-0.294,0.704-0.506
		c0.194-0.212,0.346-0.462,0.452-0.75c0.105-0.287,0.159-0.594,0.159-0.917c0-0.324-0.054-0.63-0.159-0.917
		c-0.106-0.288-0.258-0.538-0.452-0.75c-0.196-0.212-0.431-0.381-0.704-0.508c-0.273-0.125-0.58-0.188-0.921-0.188
		s-0.648,0.063-0.921,0.188c-0.274,0.127-0.51,0.296-0.704,0.508c-0.196,0.212-0.347,0.462-0.452,0.75
		c-0.106,0.287-0.159,0.593-0.159,0.917c0,0.323,0.053,0.63,0.159,0.917c0.105,0.288,0.256,0.538,0.452,0.75
		c0.194,0.212,0.43,0.381,0.704,0.506C553.571,318.689,553.879,318.752,554.22,318.752"/>
	<polygon clip-path="url(#SVGID_2_)" points="536.194,313.302 532.187,313.302 532.187,314.089 535.354,314.089 535.354,319.496 
		536.194,319.496 536.194,314.089 	"/>
	<polygon clip-path="url(#SVGID_2_)" points="527.109,324.713 527.631,324.713 528.119,326.046 528.127,326.046 528.609,324.713 
		529.135,324.713 529.135,326.59 528.804,326.59 528.804,325.081 528.798,325.081 528.229,326.59 527.994,326.59 527.433,325.081 
		527.428,325.081 527.428,326.59 527.109,326.59 	"/>
	<path clip-path="url(#SVGID_2_)" d="M531.355,325.874l-0.289-0.763l-0.294,0.763H531.355z M530.932,324.713h0.289l0.809,1.877
		h-0.382l-0.175-0.43h-0.813l-0.171,0.43h-0.372L530.932,324.713z"/>
	<path clip-path="url(#SVGID_2_)" d="M533.617,325.522c0.048,0,0.096-0.004,0.143-0.012c0.048-0.007,0.091-0.02,0.129-0.039
		s0.069-0.048,0.095-0.083c0.024-0.037,0.036-0.083,0.036-0.141c0-0.051-0.012-0.093-0.034-0.125
		c-0.022-0.033-0.053-0.059-0.087-0.079c-0.035-0.019-0.076-0.032-0.121-0.039s-0.088-0.011-0.131-0.011h-0.303v0.528H533.617z
		 M533.01,324.713h0.652c0.088,0,0.174,0.01,0.257,0.028c0.083,0.018,0.157,0.049,0.222,0.091c0.064,0.043,0.116,0.099,0.155,0.167
		c0.038,0.069,0.058,0.153,0.058,0.252c0,0.136-0.037,0.247-0.114,0.333s-0.183,0.144-0.314,0.173l0.501,0.833h-0.402l-0.436-0.795
		h-0.244v0.795h-0.334V324.713z"/>
	<polygon clip-path="url(#SVGID_2_)" points="535.473,324.713 535.807,324.713 535.807,325.524 535.814,325.524 536.6,324.713 
		537.05,324.713 536.173,325.58 537.108,326.59 536.639,326.59 535.814,325.649 535.807,325.649 535.807,326.59 535.473,326.59 	"/>
	<polygon clip-path="url(#SVGID_2_)" points="538.094,324.713 539.337,324.713 539.337,325.005 538.428,325.005 538.428,325.482 
		539.29,325.482 539.29,325.764 538.428,325.764 538.428,326.293 539.385,326.293 539.385,326.59 538.094,326.59 	"/>
	<polygon clip-path="url(#SVGID_2_)" points="540.886,325.005 540.311,325.005 540.311,324.713 541.795,324.713 541.795,325.005 
		541.22,325.005 541.22,326.59 540.886,326.59 	"/>
	<rect x="542.807" y="324.713" clip-path="url(#SVGID_2_)" width="0.334" height="1.877"/>
	<polygon clip-path="url(#SVGID_2_)" points="544.351,324.713 544.793,324.713 545.665,326.118 545.67,326.118 545.67,324.713 
		546.004,324.713 546.004,326.59 545.58,326.59 544.689,325.141 544.685,325.141 544.685,326.59 544.351,326.59 	"/>
	<path clip-path="url(#SVGID_2_)" d="M548.856,326.492c-0.095,0.046-0.2,0.082-0.313,0.106c-0.114,0.026-0.245,0.039-0.395,0.039
		c-0.152,0-0.29-0.024-0.416-0.073c-0.125-0.049-0.232-0.116-0.323-0.203c-0.09-0.089-0.16-0.192-0.211-0.313
		c-0.05-0.121-0.075-0.255-0.075-0.402c0-0.149,0.025-0.284,0.078-0.406c0.053-0.121,0.123-0.225,0.215-0.309
		c0.091-0.085,0.198-0.149,0.321-0.195c0.124-0.047,0.259-0.069,0.403-0.069c0.15,0,0.288,0.021,0.413,0.064
		c0.124,0.043,0.224,0.101,0.3,0.171l-0.229,0.25c-0.049-0.054-0.115-0.099-0.2-0.137c-0.086-0.037-0.18-0.055-0.28-0.055
		c-0.099,0-0.188,0.018-0.269,0.053c-0.081,0.035-0.149,0.084-0.205,0.146c-0.058,0.062-0.102,0.134-0.133,0.217
		c-0.03,0.083-0.046,0.173-0.046,0.27c0,0.102,0.016,0.193,0.046,0.277c0.031,0.084,0.075,0.157,0.134,0.219
		c0.057,0.063,0.127,0.11,0.209,0.146c0.082,0.034,0.176,0.051,0.279,0.051c0.144,0,0.269-0.022,0.374-0.066v-0.477h-0.395v-0.276
		h0.718V326.492z"/>
</g>
<text transform="matrix(1 0 0 1 -164 -191.2778)" font-family="'Degular-Medium'" font-size="8">OPTION 1</text>
<text transform="matrix(1 0 0 1 -164 -181.6777)" font-family="'Degular-Medium'" font-size="8">WORDMARK</text>
<g>
	<defs>
		<rect id="SVGID_3_" x="-200" y="-235" width="800" height="600"/>
	</defs>
	<clipPath id="SVGID_4_">
		<use xlink:href="#SVGID_3_"  overflow="visible"/>
	</clipPath>
	<path clip-path="url(#SVGID_4_)" fill="#FFFFFF" d="M155.812,113.497h-0.045c-0.06,0-0.127-0.037-0.202-0.112
		c-0.075-0.075-0.112-0.143-0.112-0.202v-1.077c0-0.059,0.037-0.127,0.112-0.202c0.075-0.073,0.142-0.111,0.202-0.111h12.607
		c0.06,0,0.127,0.038,0.202,0.111c0.075,0.075,0.112,0.144,0.112,0.202v1.077c0,0.06-0.037,0.127-0.112,0.202
		c-0.075,0.075-0.142,0.112-0.202,0.112h-5.316v11.484c0,0.061-0.023,0.127-0.068,0.202c-0.03,0.045-0.089,0.068-0.179,0.068h-1.436
		c-0.09,0-0.15-0.023-0.179-0.068c-0.045-0.075-0.068-0.142-0.068-0.202v-11.484H155.812z"/>
	<path clip-path="url(#SVGID_4_)" fill="#FFFFFF" d="M178.042,113.228v-0.045c-1.495,0-2.752,0.471-3.769,1.413
		c-1.017,0.943-1.525,2.221-1.525,3.836c0,1.585,0.508,2.864,1.525,3.836c1.002,0.957,2.258,1.436,3.769,1.436
		c1.495,0,2.751-0.471,3.769-1.412c1.017-0.943,1.525-2.215,1.525-3.814c0-1.615-0.501-2.894-1.503-3.836
		C180.816,113.698,179.552,113.228,178.042,113.228 M178.042,111.567v-0.045c2.079,0,3.814,0.628,5.204,1.884
		c1.391,1.258,2.087,2.946,2.087,5.07s-0.696,3.814-2.087,5.07c-1.376,1.24-3.11,1.861-5.204,1.861
		c-2.079,0-3.806-0.621-5.182-1.861c-1.391-1.256-2.086-2.939-2.086-5.047c0-2.109,0.695-3.791,2.086-5.049
		C174.251,112.195,175.978,111.567,178.042,111.567"/>
	<path clip-path="url(#SVGID_4_)" fill="#FFFFFF" d="M195.942,113.228v-0.045c-1.495,0-2.752,0.471-3.769,1.413
		c-1.017,0.943-1.525,2.221-1.525,3.836c0,1.585,0.508,2.864,1.525,3.836c1.002,0.957,2.258,1.436,3.769,1.436
		c1.495,0,2.751-0.471,3.769-1.412c1.017-0.943,1.525-2.215,1.525-3.814c0-1.615-0.501-2.894-1.503-3.836
		C198.717,113.698,197.453,113.228,195.942,113.228 M195.942,111.567v-0.045c2.079,0,3.814,0.628,5.204,1.884
		c1.391,1.258,2.087,2.946,2.087,5.07s-0.696,3.814-2.087,5.07c-1.376,1.24-3.11,1.861-5.204,1.861
		c-2.079,0-3.806-0.621-5.182-1.861c-1.391-1.256-2.086-2.939-2.086-5.047c0-2.109,0.695-3.791,2.086-5.049
		C192.151,112.195,193.878,111.567,195.942,111.567"/>
	<path clip-path="url(#SVGID_4_)" fill="#FFFFFF" d="M213.35,113.519l-3.993,0.045v5.406h3.993c1.047,0,1.899-0.239,2.558-0.718
		c0.657-0.479,0.987-1.145,0.987-1.996c0-0.883-0.322-1.555-0.965-2.02C215.242,113.744,214.382,113.505,213.35,113.519
		 M207.383,124.981v-12.897c0-0.075,0.029-0.144,0.09-0.202c0.06-0.061,0.127-0.09,0.202-0.09h5.742c1.645,0,2.97,0.389,3.971,1.166
		c1.018,0.793,1.524,1.878,1.524,3.253c0,1.062-0.313,1.937-0.941,2.625c-0.628,0.688-1.465,1.167-2.513,1.435v0.045
		c0.344,0.33,0.628,0.651,0.853,0.965l2.558,3.544c0.104,0.12,0.157,0.218,0.157,0.293c0,0.089-0.061,0.135-0.18,0.135h-1.839
		c-0.149,0-0.255-0.054-0.314-0.157l-3.32-4.599h-3.971v4.485c0,0.075-0.029,0.143-0.089,0.202
		c-0.045,0.045-0.113,0.068-0.202,0.068h-1.436c-0.091,0-0.157-0.023-0.202-0.068C207.412,125.124,207.383,125.057,207.383,124.981"
		/>
	<path clip-path="url(#SVGID_4_)" fill="#FFFFFF" d="M227.415,117.176l-1.794,3.589h5.765l-1.794-3.589
		c-0.061-0.105-0.202-0.411-0.427-0.92c-0.136-0.314-0.277-0.673-0.427-1.077l-0.18-0.471h-0.134
		C228.051,115.77,227.714,116.592,227.415,117.176 M233.427,124.96l-1.211-2.49h-7.47l-1.234,2.49
		c-0.075,0.134-0.135,0.217-0.179,0.246c-0.061,0.03-0.158,0.045-0.292,0.045h-1.458c-0.135,0-0.202-0.052-0.202-0.157l0.112-0.269
		l6.595-13.033h0.808l6.596,13.033l0.111,0.269c0,0.105-0.066,0.157-0.202,0.157h-1.458h-0.224c-0.045,0-0.09-0.022-0.135-0.067
		C233.54,125.139,233.486,125.064,233.427,124.96"/>
	<path clip-path="url(#SVGID_4_)" fill="#FFFFFF" d="M240.807,112.062l-0.044,6.774h0.044c0.271-0.33,0.493-0.568,0.673-0.718
		l7.044-6.125c0.149-0.134,0.329-0.202,0.538-0.202h1.975c0.09,0,0.135,0.038,0.135,0.113c0,0.044-0.053,0.111-0.157,0.201
		l-6.573,5.721l6.978,7.066c0.074,0.074,0.112,0.143,0.112,0.201c0,0.105-0.067,0.157-0.202,0.157h-1.907
		c-0.195,0-0.352-0.06-0.471-0.179l-5.922-5.99l-2.222,1.952v3.948c0,0.074-0.029,0.142-0.089,0.202
		c-0.046,0.045-0.112,0.066-0.203,0.066h-1.435c-0.09,0-0.157-0.021-0.202-0.066c-0.06-0.061-0.089-0.128-0.089-0.202v-12.921
		c0-0.075,0.029-0.143,0.089-0.202c0.06-0.061,0.127-0.09,0.202-0.09h1.435c0.075,0,0.143,0.029,0.203,0.09
		C240.777,111.919,240.807,111.986,240.807,112.062"/>
	<path clip-path="url(#SVGID_4_)" fill="#FFFFFF" d="M12.94,45.323c0,21.66,14.244,37.435,35.551,37.435
		c12.478,0,22.367-10.006,22.367-10.006l1.177,1.177c0,0-9.888,10.712-26.016,10.712c-25.074,0-42.026-16.363-42.026-39.318
		c0-22.838,18.129-39.318,39.789-39.318c11.773,0,22.367,5.297,29.548,13.537l-5.062,4.945C63.324,14.127,53.671,7.888,43.782,7.888
		C24.712,7.888,12.94,25.075,12.94,45.323"/>
	<path clip-path="url(#SVGID_4_)" fill="#FFFFFF" d="M77.922,84.641c1.177,0,5.297-2.59,5.297-6.71v-60.39
		c0-8.005-5.297-8.005-5.297-8.476c0-0.353,10.477-4.473,11.654-4.473c1.177,0,1.648,0.942,1.648,2.001v71.338
		c0,4.12,4.12,6.71,5.298,6.71H77.922z"/>
	<path clip-path="url(#SVGID_4_)" fill="#FFFFFF" d="M172.569,77.931c0,4.12,4.121,6.71,5.298,6.71h-18.482
		c1.059,0,5.179-2.59,5.179-6.71V55.917c1.649-2.942,4.945-8.593,8.005-12.007V77.931z M109.472,63.334l36.611-12.008
		c-2.237-10.594-9.536-18.364-18.129-18.364C117.477,32.962,109,44.146,109,58.036C109,59.92,109.119,61.568,109.472,63.334
		 M197.055,84.641c1.177,0,5.297-2.59,5.297-6.71V52.504c0-12.714-3.414-19.542-12.831-19.542c-10.124,0-16.952,7.887-16.952,7.887
		c-2.707,2.59-5.768,7.299-8.005,10.948v0.118c-8.475,14.361-16.127,32.726-35.08,32.726c-17.069,0-28.488-11.419-28.488-26.605
		c0-15.303,12.243-26.604,26.958-26.604c12.007,0,22.131,8.005,25.427,18.953l-6.945,2.354l-36.611,12.008
		c2.59,10.358,11.419,17.657,21.66,17.657c16.834,0,24.25-18.835,33.079-33.196v-4.827c0-8.005-5.179-8.005-5.179-8.358
		s10.359-4.591,11.654-4.591c1.059,0,1.53,1.059,1.53,2.119v5.18c0,0,6.946-7.299,17.776-7.299c6.239,0,20.012,3.414,20.012,21.072
		v25.427c0,4.12,4.12,6.71,5.181,6.71H197.055z"/>
	<path clip-path="url(#SVGID_4_)" fill="#FFFFFF" d="M227.783,58.036c0,13.891,8.477,25.192,18.952,25.192
		c10.124,0,17.305-7.77,17.305-7.888V45.793c-2.825-8.829-9.535-12.949-17.305-12.949C236.26,32.844,227.783,44.145,227.783,58.036
		 M220.131,58.036c0-14.715,11.891-26.604,26.604-26.604c10.713,0,17.305,6.592,17.305,6.71V17.541c0-8.005-5.179-8.005-5.179-8.476
		c0-0.353,10.359-4.473,11.654-4.473c1.177,0,1.647,0.941,1.647,2.001V71.81c0,8.005,5.181,8.005,5.181,8.357
		c0,0.354-10.36,4.474-11.655,4.474c-1.06,0-1.648-0.941-1.648-2.002v-5.297c0,0.118-7.534,7.299-17.305,7.299
		C232.021,84.641,220.131,72.751,220.131,58.036"/>
	<path clip-path="url(#SVGID_4_)" fill="#FFFFFF" d="M289.94,58.036c0,13.891,8.357,25.192,18.599,25.192
		c10.242,0,18.6-11.302,18.6-25.192c0-13.891-8.357-25.192-18.6-25.192C298.298,32.844,289.94,44.145,289.94,58.036 M281.935,58.036
		c0-14.715,11.891-26.604,26.604-26.604c14.715,0,26.604,11.889,26.604,26.604s-11.89,26.604-26.604,26.604
		C293.825,84.641,281.935,72.751,281.935,58.036"/>
	<path clip-path="url(#SVGID_4_)" fill="#FFFFFF" d="M339.737,84.641c1.177,0,5.297-2.59,5.297-6.71v-33.55
		c0-8.005-5.297-8.005-5.297-8.358s10.358-4.591,11.653-4.591c1.178,0,1.648,0.942,1.648,2.001v5.298c0,0,6.828-7.299,17.658-7.299
		c6.356,0,20.013,3.296,20.013,21.072v25.427c0,4.12,4.12,6.71,5.297,6.71h-18.482c1.06,0,5.18-2.59,5.18-6.71V52.504
		c0-12.832-3.295-19.659-12.713-19.659c-10.124,0-16.952,8.004-16.952,8.004v37.082c0,4.12,4.003,6.71,5.18,6.71H339.737z"/>
</g>
</svg>
