<?xml version="1.0" encoding="utf-8"?>
<!-- Generator: Adobe Illustrator 16.0.0, SVG Export Plug-In . SVG Version: 6.00 Build 0)  -->
<!DOCTYPE svg PUBLIC "-//W3C//DTD SVG 1.1//EN" "http://www.w3.org/Graphics/SVG/1.1/DTD/svg11.dtd">
<svg version="1.1" id="Layer_1" xmlns="http://www.w3.org/2000/svg" xmlns:xlink="http://www.w3.org/1999/xlink" x="0px" y="0px"
	 width="136.667px" height="155.085px" viewBox="0 0 136.667 155.085" enable-background="new 0 0 136.667 155.085"
	 xml:space="preserve">
<polygon fill="#ffffff" points="66.005,1.004 1,38.532 1,115.591 67.733,154.114 134.464,115.591 134.464,40.526 127.557,40.526 
	127.557,111.602 67.733,146.139 7.907,111.602 7.907,42.52 69.458,6.986 "/>
<path fill="#ffffff" d="M68.152,107.623c-10.236,0-17.134-6.438-18.003-16.797l-0.044-0.54h7.056l0.05,0.443
	c0.699,6.157,4.892,9.981,10.941,9.981c6.739,0,11.092-4.718,11.092-12.025V58.296H54.191v-6.914h32.045v37.303
	C86.236,100.187,79.138,107.623,68.152,107.623"/>
</svg>
