<?xml version="1.0" encoding="utf-8"?>
<!-- Generator: Adobe Illustrator 16.0.0, SVG Export Plug-In . SVG Version: 6.00 Build 0)  -->
<!DOCTYPE svg PUBLIC "-//W3C//DTD SVG 1.1//EN" "http://www.w3.org/Graphics/SVG/1.1/DTD/svg11.dtd">
<svg version="1.1" id="Layer_1" xmlns="http://www.w3.org/2000/svg" xmlns:xlink="http://www.w3.org/1999/xlink" x="0px" y="0px"
	 width="200.66px" height="155.085px" viewBox="0 0 200.66 155.085" enable-background="new 0 0 200.66 155.085"
	 xml:space="preserve">
<rect x="-26.333" y="-29.955" fill="none" width="253.858" height="214.707"/>
<g>
	<path fill="#404041" d="M4.201,96.487V73.86h11.127c4.172,0,6.445,2.578,6.445,5.768c0,2.815-1.832,4.75-3.936,5.189
		c2.443,0.375,4.376,2.781,4.376,5.531c0,3.528-2.306,6.139-6.581,6.139H4.201z M17.703,80.272c0-1.663-1.153-2.918-3.155-2.918
		H8.17v5.835h6.378C16.549,83.189,17.703,82.002,17.703,80.272z M18.143,89.84c0-1.698-1.187-3.156-3.426-3.156H8.17v6.31h6.547
		C16.854,92.993,18.143,91.807,18.143,89.84z"/>
	<path fill="#404041" d="M38.468,96.492l-4.987-8.447h-3.969v8.447h-3.969V73.865h9.939c4.478,0,7.43,2.884,7.43,7.09
		c0,4.004-2.646,6.208-5.394,6.649l5.563,8.888H38.468z M38.842,80.92c0-2.171-1.628-3.562-3.868-3.562h-5.461v7.192h5.461
		C37.213,84.551,38.842,83.126,38.842,80.92z"/>
	<path fill="#404041" d="M46.208,87.536V73.865h4.036v13.57c0,3.596,2.001,5.938,5.768,5.938c3.766,0,5.768-2.342,5.768-5.938
		v-13.57h4.036v13.671c0,5.598-3.222,9.364-9.804,9.364C49.464,96.9,46.208,93.134,46.208,87.536z"/>
	<path fill="#404041" d="M68.974,85.196c0-6.99,5.191-11.705,11.874-11.705c4.546,0,7.395,2.341,9.058,5.055l-3.359,1.764
		c-1.085-1.9-3.291-3.291-5.699-3.291c-4.478,0-7.803,3.393-7.803,8.177c0,4.715,3.325,8.176,7.803,8.176
		c2.409,0,4.614-1.426,5.699-3.291l3.393,1.696c-1.73,2.714-4.545,5.123-9.092,5.123C74.165,96.9,68.974,92.149,68.974,85.196z"/>
	<path fill="#404041" d="M92.42,96.492V73.865h15.503v3.494H96.389v5.836h11.296v3.493H96.389v6.31h11.534v3.495H92.42z"/>
	<path fill="#404041" d="M19.942,125.145v-9.905H8.17v9.905H4.201v-22.627H8.17v9.228h11.772v-9.228h3.969v22.627H19.942z"/>
	<path fill="#404041" d="M27.816,125.145v-22.627H43.32v3.494H31.786v5.835h11.296v3.493H31.786v6.312H43.32v3.493H27.816z"/>
	<path fill="#404041" d="M62.253,125.145l-11.806-16.182v16.182h-3.969v-22.627h4.071l11.568,15.673v-15.673h3.969v22.627H62.253z"
		/>
	<path fill="#404041" d="M69.314,125.145v-22.627h8.413c7.09,0,11.839,4.681,11.839,11.297c0,6.683-4.75,11.33-11.806,11.33H69.314z
		 M85.496,113.814c0-4.342-2.714-7.803-7.735-7.803h-4.478v15.64h4.444C82.646,121.651,85.496,118.123,85.496,113.814z"/>
	<path fill="#404041" d="M92.487,125.145v-22.627h15.503v3.494H96.457v5.835h11.296v3.493H96.457v6.312h11.534v3.493H92.487z"/>
	<path fill="#404041" d="M124.075,125.145l-4.986-8.447h-3.97v8.447h-3.969v-22.627h9.94c4.479,0,7.431,2.884,7.431,7.09
		c0,4.003-2.647,6.208-5.395,6.65l5.563,8.887H124.075z M124.449,109.573c0-2.171-1.628-3.562-3.869-3.562h-5.461v7.192h5.461
		C122.821,113.204,124.449,111.778,124.449,109.573z"/>
	<path fill="#404041" d="M130.117,121.957l2.241-3.089c1.525,1.663,4.001,3.156,7.157,3.156c3.257,0,4.513-1.595,4.513-3.121
		c0-4.75-13.164-1.798-13.164-10.11c0-3.766,3.256-6.648,8.243-6.648c3.495,0,6.379,1.153,8.449,3.188l-2.241,2.951
		c-1.797-1.797-4.206-2.611-6.581-2.611c-2.306,0-3.799,1.153-3.799,2.815c0,4.241,13.164,1.628,13.164,10.041
		c0,3.766-2.68,7.022-8.754,7.022C135.172,125.552,132.153,124.06,130.117,121.957z"/>
	<path fill="#404041" d="M149.832,113.849c0-6.751,4.782-11.704,11.567-11.704c6.751,0,11.569,4.953,11.569,11.704
		s-4.818,11.703-11.569,11.703C154.614,125.552,149.832,120.6,149.832,113.849z M168.897,113.849c0-4.682-2.952-8.176-7.499-8.176
		c-4.58,0-7.496,3.494-7.496,8.176c0,4.647,2.916,8.176,7.496,8.176C165.945,122.024,168.897,118.496,168.897,113.849z"/>
	<path fill="#404041" d="M191.631,125.145l-11.805-16.182v16.182h-3.97v-22.627h4.071l11.569,15.673v-15.673h3.968v22.627H191.631z"
		/>
	<g>
		<path fill="#404041" d="M19.976,153.798l-1.663-4.376H7.933l-1.662,4.376H1.758l8.889-22.629h4.953l8.889,22.629H19.976z
			 M13.123,135.14l-4.071,10.788h8.142L13.123,135.14z"/>
		<path fill="#404041" d="M39.181,153.798l-4.987-8.446h-3.969v8.446h-3.969v-22.629h9.94c4.478,0,7.43,2.885,7.43,7.091
			c0,4.003-2.647,6.208-5.395,6.649l5.564,8.889H39.181z M39.555,138.226c0-2.171-1.628-3.562-3.868-3.562h-5.461v7.192h5.461
			C37.926,141.856,39.555,140.431,39.555,138.226z"/>
		<path fill="#404041" d="M45.937,142.501c0-6.989,5.19-11.704,11.873-11.704c4.545,0,7.396,2.342,9.058,5.056l-3.359,1.763
			c-1.085-1.899-3.291-3.29-5.699-3.29c-4.478,0-7.802,3.392-7.802,8.176c0,4.714,3.324,8.175,7.802,8.175
			c2.409,0,4.614-1.424,5.699-3.29l3.393,1.695c-1.73,2.714-4.546,5.123-9.092,5.123C51.126,154.204,45.937,149.456,45.937,142.501z
			"/>
		<path fill="#404041" d="M85.123,153.798v-9.906H73.351v9.906h-3.969v-22.629h3.969v9.228h11.772v-9.228h3.969v22.629H85.123z"/>
		<path fill="#404041" d="M93.235,153.798v-22.629h3.969v22.629H93.235z"/>
		<path fill="#404041" d="M106.737,153.798v-19.134h-6.853v-3.495h17.674v3.495h-6.852v19.134H106.737z"/>
		<path fill="#404041" d="M120.242,153.798v-22.629h15.503v3.495h-11.533v5.836h11.295v3.494h-11.295v6.31h11.533v3.494H120.242z"/>
		<path fill="#404041" d="M138.159,142.501c0-6.989,5.19-11.704,11.874-11.704c4.546,0,7.395,2.342,9.057,5.056l-3.358,1.763
			c-1.085-1.899-3.291-3.29-5.699-3.29c-4.479,0-7.803,3.392-7.803,8.176c0,4.714,3.324,8.175,7.803,8.175
			c2.409,0,4.614-1.424,5.699-3.29l3.392,1.695c-1.729,2.714-4.544,5.123-9.091,5.123
			C143.349,154.204,138.159,149.456,138.159,142.501z"/>
		<path fill="#404041" d="M166.998,153.798v-19.134h-6.852v-3.495h17.674v3.495h-6.853v19.134H166.998z"/>
		<path fill="#404041" d="M179.044,150.608l2.241-3.086c1.525,1.662,4.001,3.153,7.157,3.153c3.257,0,4.513-1.595,4.513-3.12
			c0-4.75-13.164-1.798-13.164-10.11c0-3.764,3.257-6.648,8.243-6.648c3.495,0,6.379,1.153,8.449,3.189l-2.241,2.952
			c-1.796-1.799-4.206-2.613-6.581-2.613c-2.306,0-3.8,1.152-3.8,2.814c0,4.242,13.164,1.629,13.164,10.042
			c0,3.766-2.68,7.022-8.754,7.022C184.1,154.204,181.081,152.713,179.044,150.608z"/>
	</g>
</g>
<g>
	<rect x="4.235" y="0.579" fill="#8BABBD" width="30.532" height="30.533"/>
	<rect x="4.235" y="37.219" fill="#8BABBD" width="30.532" height="30.533"/>
	<rect x="40.875" y="0.579" fill="#8BABBD" width="30.533" height="30.533"/>
	<rect x="40.875" y="37.219" fill="#8BABBD" width="30.533" height="30.533"/>
	<rect x="77.515" y="0.579" fill="#8BABBD" width="30.535" height="30.533"/>
	<rect x="77.515" y="37.219" fill="#8BABBD" width="30.535" height="30.533"/>
</g>
</svg>
