<?xml version="1.0" encoding="utf-8"?>
<!-- Generator: Adobe Illustrator 16.0.0, SVG Export Plug-In . SVG Version: 6.00 Build 0)  -->
<!DOCTYPE svg PUBLIC "-//W3C//DTD SVG 1.1//EN" "http://www.w3.org/Graphics/SVG/1.1/DTD/svg11.dtd">
<svg version="1.1" id="Layer_1" xmlns="http://www.w3.org/2000/svg" xmlns:xlink="http://www.w3.org/1999/xlink" x="0px" y="0px"
	 width="358px" height="155.085px" viewBox="0 0 358 155.085" enable-background="new 0 0 358 155.085" xml:space="preserve">
<polygon fill="#232328" points="27.926,27.434 54.747,27.434 54.75,109.901 42.395,109.901 42.395,39.788 27.944,39.781 "/>
<rect x="61.898" y="27.429" fill="#232328" width="55.606" height="12.359"/>
<rect x="61.898" y="60.207" fill="#232328" width="40.777" height="12.36"/>
<rect x="27.973" y="117.085" fill="#232328" width="40.775" height="12.359"/>
<path fill="#8B6B24" d="M129.89,15.141H14.974v125.893H129.89V15.141z M142.207,153.392H2.64V2.813h139.567V153.392z"/>
<g>
	<path fill="#232328" d="M167.549,42.193H157.19v5.768h7.519c0.667,0.186,0.999,0.644,0.999,1.376c0,0.701-0.331,1.169-1.002,1.397
		h-7.516v7.497c-0.193,0.677-0.654,1.021-1.374,1.021c-0.691,0-1.152-0.343-1.374-1.021V40.491c0-0.228,0.149-0.463,0.453-0.706
		c0.303-0.242,0.568-0.363,0.796-0.363h11.673c0.35,0,0.633,0.142,0.854,0.422c0.218,0.284,0.33,0.608,0.33,0.976
		C168.549,41.58,168.212,42.04,167.549,42.193"/>
	<path fill="#232328" d="M178.862,40.671c0.074,0.228-0.021,0.536-0.284,0.931c-0.267,0.394-0.527,0.591-0.787,0.591h-1.771v14.334
		h1.771c0.243,0,0.483,0.146,0.716,0.436c0.237,0.291,0.355,0.556,0.355,0.799c0.074,0.277-0.01,0.602-0.26,0.975
		c-0.25,0.373-0.521,0.561-0.808,0.561h-6.296c-0.242,0-0.466-0.139-0.667-0.412c-0.205-0.275-0.336-0.549-0.397-0.826
		c-0.045-0.26,0.051-0.578,0.294-0.958c0.242-0.385,0.502-0.574,0.774-0.574h1.772V42.193h-1.772c-0.228,0-0.457-0.145-0.681-0.433
		c-0.228-0.287-0.356-0.561-0.387-0.817c-0.015-0.424,0.086-0.784,0.304-1.08c0.221-0.294,0.532-0.442,0.941-0.442h5.936
		c0.271,0,0.554,0.138,0.848,0.419C178.761,40.121,178.893,40.397,178.862,40.671"/>
	<path fill="#232328" d="M193.424,47.03v-3.885c0-0.179-0.149-0.383-0.446-0.611c-0.297-0.225-0.537-0.34-0.716-0.34h-7.494v5.768
		h7.494c0.179,0.017,0.419-0.09,0.716-0.318C193.275,47.417,193.424,47.214,193.424,47.03 M196.171,47.577
		c0,0.196-0.213,0.602-0.638,1.213c-0.426,0.613-0.672,0.946-0.75,0.99c-0.422,0.243-0.733,0.409-0.929,0.499
		c-0.396,0.184-0.727,0.304-1,0.363c-0.061,0.046-0.084,0.115-0.067,0.205c0.831,1.605,1.959,3.909,3.385,6.906
		c0.031,0.356-0.084,0.716-0.341,1.083c-0.256,0.37-0.55,0.522-0.882,0.463c-0.618,0.091-1.135-0.291-1.537-1.142
		c-1.449-2.964-2.689-5.438-3.716-7.421h-4.926v7.516c0,0.242-0.135,0.466-0.409,0.671c-0.274,0.204-0.547,0.329-0.821,0.376
		c-0.287,0.046-0.611-0.047-0.976-0.284c-0.362-0.235-0.544-0.499-0.544-0.786V40.491c0-0.228,0.152-0.463,0.456-0.705
		c0.3-0.243,0.567-0.363,0.794-0.363h9.271c0.74,0,1.53,0.39,2.372,1.169c0.838,0.779,1.26,1.532,1.26,2.259V47.577z"/>
	<path fill="#232328" d="M213.706,55.854c0,0.684-0.405,1.429-1.213,2.235c-0.814,0.806-1.558,1.211-2.24,1.211h-7.248
		c-0.892-0.108-1.703-0.578-2.429-1.416c-0.726-0.838-1.088-1.709-1.088-2.622c0-1.053,0.483-1.575,1.453-1.575
		c0.591,0,0.973,0.189,1.159,0.568c0,0.03,0.074,0.463,0.223,1.294c0.03,0.135,0.162,0.334,0.398,0.591
		c0.237,0.255,0.422,0.383,0.558,0.383h6.7c0.122,0,0.318-0.132,0.581-0.397c0.264-0.264,0.396-0.458,0.396-0.578v-3.841
		c0-0.117-0.132-0.311-0.396-0.578c-0.263-0.262-0.459-0.397-0.581-0.397h-6.974c-0.666,0-1.405-0.409-2.223-1.225
		c-0.817-0.821-1.229-1.561-1.229-2.228v-4.404c0-0.73,0.422-1.485,1.264-2.274c0.841-0.786,1.628-1.179,2.372-1.179h6.906
		c0.848,0,1.696,0.429,2.544,1.294c0.773,0.816,1.159,1.674,1.159,2.566c0,1.167-0.493,1.749-1.476,1.749
		c-0.531,0-0.919-0.188-1.159-0.568c-0.061-0.135-0.118-0.392-0.172-0.762c-0.051-0.37-0.125-0.647-0.213-0.826
		c-0.166-0.319-0.432-0.547-0.797-0.683h-6.7c-0.105,0-0.294,0.128-0.568,0.385c-0.273,0.255-0.409,0.442-0.409,0.564v3.87
		c0,0.104,0.135,0.291,0.409,0.554c0.274,0.263,0.463,0.394,0.568,0.394h6.974c0.682,0,1.426,0.405,2.24,1.208
		c0.808,0.809,1.213,1.554,1.213,2.238V55.854z"/>
	<path fill="#232328" d="M230.015,42.193h-4.656v16.084c-0.183,0.681-0.635,1.021-1.362,1.021c-0.696,0-1.159-0.339-1.385-1.021
		V42.193h-4.656c-0.669-0.167-1-0.637-1-1.409c0-0.363,0.108-0.681,0.328-0.955s0.514-0.409,0.875-0.409h11.673
		c0.369,0,0.656,0.135,0.865,0.409c0.213,0.273,0.317,0.591,0.317,0.955C231.015,41.557,230.681,42.026,230.015,42.193"/>
	<path fill="#232328" d="M168.593,85.508c0,0.243-0.135,0.473-0.407,0.676c-0.273,0.203-0.547,0.324-0.821,0.372
		c-0.347,0.061-0.688-0.041-1.021-0.305s-0.499-0.574-0.499-0.926l-0.069-13.964c-0.017,0.014-0.688,0.771-2.02,2.267
		c-0.848,0.956-1.546,1.453-2.09,1.503c-0.439,0.027-1.113-0.419-2.024-1.341l-2.384-2.429l-0.069,13.964
		c0.063,0.243-0.063,0.514-0.374,0.812c-0.311,0.297-0.595,0.432-0.855,0.419c-0.287,0.047-0.611-0.048-0.976-0.284
		c-0.363-0.236-0.542-0.5-0.542-0.784V67.75c0-0.226,0.146-0.459,0.443-0.692c0.294-0.235,0.564-0.36,0.806-0.377
		c0.378-0.015,0.626,0.031,0.748,0.139c0.727,0.664,1.578,1.492,2.546,2.478l2.499,2.538c1.044-1.058,2.75-2.73,5.11-5.016
		c0.093-0.095,0.252-0.139,0.477-0.139c0.273-0.045,0.594,0.051,0.966,0.284c0.37,0.235,0.556,0.488,0.556,0.759V85.508z"/>
	<path fill="#232328" d="M185.245,86.556h-12.04c-0.167,0-0.389-0.136-0.657-0.406c-0.273-0.27-0.409-0.493-0.409-0.662V67.75
		c0-0.229,0.148-0.463,0.453-0.704c0.301-0.244,0.568-0.363,0.796-0.363h11.675c0.348,0,0.632,0.138,0.855,0.422
		c0.216,0.284,0.328,0.604,0.328,0.976c0,0.76-0.338,1.216-1.003,1.372h-10.356v5.767h7.514c0.669,0.186,1.004,0.646,1.004,1.375
		c0,0.703-0.335,1.169-1.004,1.398h-7.514v5.792h10.356c0.686,0.182,1.023,0.648,1.023,1.398
		C186.265,85.887,185.927,86.346,185.245,86.556"/>
	<path fill="#232328" d="M201.577,86.556h-12.042c-0.166,0-0.382-0.129-0.655-0.372c-0.273-0.25-0.409-0.453-0.409-0.608V67.726
		c0.179-0.654,0.618-0.978,1.314-0.978c0.365,0,0.696,0.11,0.99,0.331c0.294,0.218,0.442,0.501,0.442,0.853v15.853h10.359
		c0.682,0.182,1.02,0.648,1.02,1.398C202.597,85.887,202.259,86.346,201.577,86.556"/>
	<path fill="#232328" d="M215.75,82.832v-3.886c0-0.182-0.149-0.385-0.446-0.615c-0.297-0.226-0.534-0.338-0.716-0.338h-7.494v5.792
		h7.494c0.2,0,0.439-0.115,0.73-0.338C215.605,83.217,215.75,83.015,215.75,82.832 M215.75,74.291v-3.885
		c0-0.183-0.149-0.385-0.446-0.615c-0.297-0.223-0.534-0.338-0.716-0.338h-7.494v5.767h7.494c0.183,0.017,0.419-0.091,0.716-0.314
		C215.602,74.676,215.75,74.473,215.75,74.291 M218.5,83.122c0,0.683-0.405,1.427-1.216,2.23c-0.811,0.797-1.558,1.203-2.236,1.203
		h-9.633c-0.166,0-0.389-0.136-0.659-0.406c-0.274-0.27-0.409-0.493-0.409-0.662V67.75c0-0.229,0.148-0.463,0.456-0.704
		c0.3-0.244,0.564-0.363,0.794-0.363h9.268c0.74,0,1.534,0.39,2.372,1.172c0.845,0.78,1.264,1.53,1.264,2.26v4.466
		c-0.013,0.237-0.166,0.605-0.456,1.115c-0.378,0.655-0.78,0.977-1.203,0.977c0.453,0,0.854,0.277,1.203,0.821
		c0.301,0.466,0.456,0.878,0.456,1.23V83.122z"/>
	<path fill="#232328" d="M233.38,82.832V70.405c0-0.183-0.149-0.385-0.446-0.615c-0.294-0.223-0.534-0.338-0.713-0.338h-6.314
		c-0.199,0-0.446,0.115-0.74,0.338c-0.294,0.229-0.442,0.439-0.442,0.638v12.383c0,0.115,0.132,0.311,0.396,0.574
		c0.267,0.271,0.459,0.399,0.578,0.399h6.703c0.108,0,0.294-0.129,0.568-0.399C233.242,83.122,233.38,82.934,233.38,82.832
		 M236.127,83.122c0,0.683-0.405,1.427-1.216,2.23c-0.807,0.797-1.558,1.203-2.236,1.203h-7.248c-0.683,0-1.426-0.406-2.236-1.217
		c-0.811-0.811-1.213-1.554-1.213-2.243V70.138c0-0.729,0.416-1.49,1.257-2.273c0.841-0.792,1.636-1.183,2.375-1.183h6.886
		c0.74,0,1.53,0.39,2.372,1.172c0.838,0.78,1.26,1.53,1.26,2.26V83.122z"/>
	<path fill="#232328" d="M253.753,83.129c0,0.676-0.405,1.42-1.216,2.224c-0.807,0.804-1.554,1.21-2.236,1.21h-7.244
		c-0.686,0-1.429-0.413-2.24-1.224c-0.808-0.811-1.213-1.561-1.213-2.236v-15.38c0.179-0.649,0.619-0.975,1.314-0.975
		c0.362,0,0.696,0.111,0.99,0.329c0.294,0.22,0.442,0.503,0.442,0.852v14.721c0,0.183,0.118,0.412,0.352,0.703
		c0.236,0.29,0.442,0.433,0.625,0.433h6.7c0.108,0,0.297-0.136,0.571-0.393c0.271-0.271,0.409-0.466,0.409-0.581V67.743
		c0.179-0.662,0.635-0.995,1.358-0.995c0.7,0,1.159,0.333,1.389,1.001V83.129z"/>
	<path fill="#232328" d="M268.657,74.291v-3.885c0-0.183-0.148-0.385-0.446-0.611c-0.294-0.227-0.537-0.341-0.716-0.341H260v5.771
		h7.494c0.179,0.014,0.422-0.095,0.716-0.317C268.508,74.676,268.657,74.473,268.657,74.291 M271.404,74.834
		c0,0.2-0.213,0.605-0.639,1.213c-0.422,0.618-0.672,0.946-0.75,0.993c-0.422,0.24-0.733,0.405-0.926,0.497
		c-0.396,0.183-0.73,0.304-1,0.368c-0.064,0.041-0.088,0.108-0.071,0.2c0.832,1.604,1.96,3.909,3.386,6.909
		c0.03,0.352-0.084,0.709-0.341,1.081c-0.253,0.365-0.547,0.521-0.882,0.46c-0.618,0.094-1.128-0.291-1.537-1.143
		c-1.45-2.966-2.689-5.437-3.717-7.423H260v7.518c0,0.243-0.135,0.467-0.409,0.669c-0.273,0.21-0.547,0.338-0.821,0.379
		c-0.287,0.047-0.612-0.048-0.977-0.284c-0.361-0.236-0.541-0.493-0.541-0.784V67.75c0-0.229,0.148-0.466,0.453-0.706
		c0.301-0.242,0.568-0.363,0.794-0.363h9.271c0.74,0,1.531,0.392,2.372,1.171c0.841,0.78,1.26,1.534,1.26,2.257V74.834z"/>
	<path fill="#232328" d="M288.939,85.487c-0.183,0.683-0.632,1.027-1.358,1.027c-0.544,0-0.966-0.25-1.27-0.736
		c-0.635-1-3.538-5.379-8.704-13.14l-0.071,12.687c0,0.365-0.142,0.655-0.422,0.865c-0.277,0.216-0.608,0.324-0.983,0.324
		c-0.747,0-1.192-0.338-1.345-1V67.726c0.183-0.669,0.639-1,1.365-1c0.544,0,0.97,0.235,1.27,0.706
		c1.244,1.905,4.143,6.284,8.704,13.129l0.064-12.653c0-0.361,0.152-0.659,0.457-0.885c0.256-0.198,0.574-0.297,0.953-0.297
		c0.743,0,1.189,0.324,1.341,0.976V85.487z"/>
	<path fill="#232328" d="M305.589,86.556h-12.038c-0.166,0-0.389-0.136-0.659-0.406c-0.274-0.27-0.412-0.493-0.412-0.662V67.75
		c0-0.229,0.155-0.463,0.459-0.704c0.301-0.244,0.567-0.363,0.794-0.363h11.673c0.351,0,0.635,0.138,0.851,0.422
		c0.223,0.284,0.331,0.604,0.331,0.976c0,0.76-0.334,1.216-1.003,1.372h-10.352v5.767h7.518c0.662,0.186,1,0.646,1,1.375
		c0,0.703-0.338,1.169-1,1.398h-7.518v5.792h10.352c0.686,0.182,1.024,0.648,1.024,1.398
		C306.609,85.887,306.271,86.346,305.589,86.556"/>
	<path fill="#232328" d="M165.846,107.246v-6.744c0-0.817-0.463-1.655-1.39-2.507c-0.927-0.857-1.806-1.283-2.644-1.283h-4.622
		v14.332h4.622c0.838,0,1.717-0.426,2.644-1.271C165.383,108.922,165.846,108.084,165.846,107.246 M168.593,107.719
		c0,0.095-0.044,0.264-0.135,0.527c-0.123,0.317-0.189,0.507-0.203,0.567c-0.26,1.041-1.025,2.143-2.294,3.284
		c-1.274,1.143-2.433,1.717-3.479,1.717h-6.974c-0.167,0-0.385-0.136-0.657-0.405c-0.273-0.277-0.409-0.493-0.409-0.662V95.009
		c0-0.229,0.149-0.467,0.453-0.703c0.304-0.243,0.568-0.364,0.796-0.364h6.608c1.139,0,2.35,0.561,3.636,1.683
		c1.228,1.074,2,2.183,2.319,3.317c0.225,0.804,0.338,1.176,0.338,1.115V107.719z"/>
	<path fill="#232328" d="M185.129,113.814h-12.038c-0.167,0-0.385-0.136-0.657-0.405c-0.273-0.277-0.409-0.493-0.409-0.662V95.009
		c0-0.229,0.149-0.467,0.453-0.703c0.301-0.243,0.568-0.364,0.796-0.364h11.673c0.351,0,0.632,0.142,0.854,0.419
		c0.22,0.283,0.328,0.607,0.328,0.979c0,0.764-0.334,1.216-1.004,1.372h-10.354v5.764h7.516c0.666,0.189,1.003,0.648,1.003,1.379
		c0,0.702-0.338,1.169-1.003,1.398h-7.516v5.791h10.354c0.686,0.183,1.024,0.648,1.024,1.392
		C186.15,113.146,185.812,113.604,185.129,113.814"/>
	<path fill="#232328" d="M202.327,96.212c-0.804,2.297-1.703,4.993-2.703,8.081c-0.47,1.507-0.933,3.007-1.389,4.515
		c-0.561,1.776-1.095,3.257-1.611,4.439c-0.166,0.378-0.575,0.567-1.227,0.567c-0.575,0-0.946-0.189-1.112-0.567
		c-0.534-1.183-1.061-2.608-1.591-4.277c-0.453-1.467-0.898-2.933-1.341-4.393c-0.088-0.317-0.264-0.872-0.52-1.655l-1.663-4.96
		c-0.101-0.291-0.27-0.73-0.497-1.318c-0.196-0.547-0.294-1-0.294-1.364c0-0.331,0.128-0.636,0.385-0.912
		c0.213-0.224,0.432-0.365,0.659-0.433c0.149-0.041,0.368-0.027,0.646,0.054c0.284,0.067,0.479,0.162,0.604,0.271
		c0.223,0.209,0.473,0.729,0.747,1.54c0.469,1.413,1.311,3.927,2.527,7.549l1.477,4.479c1.044-2.655,2.473-6.899,4.288-12.751
		c0.227-0.757,0.743-1.142,1.544-1.142c0.365,0,0.669,0.135,0.912,0.392c0.24,0.257,0.362,0.567,0.362,0.933
		C202.53,95.502,202.462,95.813,202.327,96.212"/>
	<path fill="#232328" d="M218.659,113.814h-12.042c-0.166,0-0.385-0.136-0.655-0.405c-0.273-0.277-0.412-0.493-0.412-0.662V95.009
		c0-0.229,0.152-0.467,0.456-0.703c0.301-0.243,0.567-0.364,0.794-0.364h11.673c0.352,0,0.635,0.142,0.855,0.419
		c0.219,0.283,0.331,0.607,0.331,0.979c0,0.764-0.338,1.216-1.003,1.372H208.3v5.764h7.518c0.666,0.189,1,0.648,1,1.379
		c0,0.702-0.334,1.169-1,1.398H208.3v5.791h10.356c0.682,0.183,1.023,0.648,1.023,1.392
		C219.68,113.146,219.338,113.604,218.659,113.814"/>
	<path fill="#232328" d="M234.992,113.814H222.95c-0.166,0-0.385-0.129-0.659-0.379c-0.271-0.243-0.405-0.445-0.405-0.601V94.981
		c0.179-0.648,0.618-0.973,1.314-0.973c0.362,0,0.696,0.108,0.99,0.331c0.294,0.216,0.442,0.5,0.442,0.852v15.853h10.359
		c0.679,0.183,1.021,0.648,1.021,1.392C236.012,113.146,235.671,113.604,234.992,113.814"/>
	<path fill="#232328" d="M249.162,110.091V97.664c0-0.183-0.146-0.385-0.439-0.614c-0.297-0.224-0.537-0.338-0.716-0.338h-6.318
		c-0.193,0-0.443,0.114-0.737,0.338c-0.294,0.229-0.442,0.438-0.442,0.635v12.38c0,0.121,0.132,0.317,0.398,0.581
		c0.267,0.263,0.457,0.398,0.578,0.398h6.7c0.108,0,0.297-0.136,0.567-0.398C249.027,110.382,249.162,110.199,249.162,110.091
		 M251.912,110.382c0,0.683-0.402,1.426-1.213,2.229c-0.814,0.798-1.558,1.203-2.24,1.203h-7.244c-0.686,0-1.429-0.405-2.237-1.217
		c-0.811-0.811-1.216-1.554-1.216-2.236V97.394c0-0.723,0.419-1.479,1.26-2.27c0.841-0.791,1.632-1.183,2.372-1.183h6.882
		c0.743,0,1.537,0.392,2.378,1.169c0.834,0.783,1.257,1.533,1.257,2.264V110.382z"/>
	<path fill="#232328" d="M266.792,101.55v-3.886c0-0.183-0.152-0.385-0.446-0.614c-0.297-0.224-0.534-0.338-0.716-0.338h-7.49v5.771
		h7.49c0.183,0.014,0.419-0.095,0.716-0.317C266.64,101.935,266.792,101.732,266.792,101.55 M269.542,102.091
		c0,0.081-0.041,0.162-0.115,0.25c-0.078,0.094-0.122,0.162-0.135,0.209c-0.122,0.345-0.358,0.777-0.706,1.291
		c-0.166,0.257-0.554,0.561-1.159,0.898c-0.604,0.345-1.05,0.514-1.338,0.514h-7.95v7.494c-0.169,0.682-0.625,1.02-1.365,1.02
		c-0.696,0-1.159-0.338-1.385-1.02V95.009c0-0.229,0.149-0.467,0.456-0.71c0.301-0.236,0.568-0.357,0.794-0.357h9.264
		c0.747,0,1.537,0.385,2.378,1.169c0.838,0.776,1.26,1.526,1.26,2.264V102.091z"/>
	<path fill="#232328" d="M286.192,112.767c0,0.243-0.135,0.467-0.409,0.676c-0.273,0.203-0.547,0.324-0.817,0.372
		c-0.348,0.061-0.689-0.041-1.024-0.311c-0.331-0.264-0.5-0.568-0.5-0.919l-0.067-13.968c-0.017,0.014-0.689,0.771-2.021,2.271
		c-0.848,0.953-1.547,1.459-2.091,1.5c-0.439,0.034-1.112-0.419-2.024-1.338l-2.382-2.433l-0.071,13.968
		c0.061,0.243-0.064,0.513-0.372,0.811c-0.311,0.297-0.595,0.433-0.852,0.419c-0.291,0.047-0.615-0.048-0.979-0.284
		c-0.362-0.236-0.544-0.493-0.544-0.783V95.009c0-0.229,0.145-0.46,0.442-0.696c0.294-0.229,0.564-0.358,0.808-0.371
		c0.378-0.021,0.625,0.026,0.75,0.135c0.727,0.662,1.574,1.493,2.544,2.479l2.497,2.541c1.044-1.061,2.75-2.736,5.112-5.021
		c0.091-0.088,0.25-0.135,0.477-0.135c0.273-0.048,0.595,0.047,0.966,0.283c0.368,0.229,0.557,0.486,0.557,0.764V112.767z"/>
	<path fill="#232328" d="M302.842,113.814h-12.042c-0.166,0-0.382-0.136-0.656-0.405c-0.273-0.277-0.409-0.493-0.409-0.662V95.009
		c0-0.229,0.148-0.467,0.453-0.703c0.301-0.243,0.568-0.364,0.797-0.364h11.673c0.348,0,0.632,0.142,0.852,0.419
		c0.219,0.283,0.331,0.607,0.331,0.979c0,0.764-0.338,1.216-1,1.372h-10.359v5.764H300c0.669,0.189,1,0.648,1,1.379
		c0,0.702-0.332,1.169-1,1.398h-7.517v5.791h10.359c0.682,0.183,1.02,0.648,1.02,1.392
		C303.862,113.146,303.524,113.604,302.842,113.814"/>
	<path fill="#232328" d="M320.242,112.747c-0.179,0.682-0.635,1.02-1.361,1.02c-0.541,0-0.963-0.243-1.267-0.729
		c-0.639-1-3.541-5.379-8.707-13.136l-0.067,12.684c0,0.364-0.142,0.655-0.419,0.864c-0.281,0.217-0.612,0.317-0.99,0.317
		c-0.743,0-1.189-0.331-1.341-1V94.988c0.183-0.669,0.635-1.007,1.362-1.007c0.547,0,0.97,0.236,1.274,0.71
		c1.243,1.905,4.142,6.284,8.7,13.129l0.071-12.649c0-0.365,0.148-0.662,0.453-0.892c0.257-0.196,0.574-0.298,0.956-0.298
		c0.74,0,1.186,0.324,1.338,0.979V112.747z"/>
	<path fill="#232328" d="M336.892,96.712h-4.656v16.015c-0.186,0.683-0.638,1.021-1.365,1.021c-0.696,0-1.159-0.338-1.382-1.021
		V96.712h-4.659c-0.666-0.169-1-0.636-1-1.413c0-0.357,0.108-0.676,0.331-0.952c0.216-0.271,0.507-0.405,0.875-0.405h11.673
		c0.361,0,0.652,0.135,0.865,0.405c0.209,0.276,0.318,0.595,0.318,0.952C337.893,96.076,337.558,96.543,336.892,96.712"/>
	<path fill="#232328" d="M354.657,110.368c0,0.689-0.405,1.433-1.216,2.236c-0.814,0.812-1.558,1.21-2.237,1.21h-7.25
		c-0.892-0.102-1.699-0.581-2.429-1.412c-0.727-0.838-1.088-1.71-1.088-2.622c0-1.048,0.483-1.574,1.453-1.574
		c0.591,0,0.977,0.188,1.159,0.567c0,0.027,0.078,0.466,0.226,1.291c0.031,0.142,0.162,0.338,0.396,0.594
		c0.236,0.257,0.422,0.386,0.558,0.386h6.703c0.122,0,0.314-0.136,0.581-0.398c0.264-0.264,0.396-0.46,0.396-0.581v-3.832
		c0-0.128-0.132-0.317-0.396-0.581c-0.267-0.264-0.459-0.398-0.581-0.398h-6.977c-0.662,0-1.402-0.412-2.223-1.229
		c-0.817-0.818-1.23-1.555-1.23-2.224v-4.406c0-0.729,0.422-1.486,1.264-2.27c0.841-0.791,1.632-1.183,2.375-1.183h6.902
		c0.849,0,1.696,0.426,2.544,1.29c0.777,0.817,1.159,1.676,1.159,2.568c0,1.169-0.49,1.75-1.477,1.75
		c-0.53,0-0.915-0.189-1.155-0.567c-0.064-0.136-0.118-0.393-0.173-0.764c-0.054-0.365-0.125-0.643-0.216-0.825
		c-0.166-0.317-0.433-0.547-0.794-0.682h-6.703c-0.105,0-0.294,0.128-0.568,0.385c-0.273,0.257-0.409,0.439-0.409,0.561v3.872
		c0,0.108,0.135,0.291,0.409,0.555c0.274,0.263,0.463,0.398,0.568,0.398h6.977c0.68,0,1.423,0.398,2.237,1.209
		c0.811,0.805,1.216,1.548,1.216,2.237V110.368z"/>
	<path fill="#232328" d="M168.593,137.634c0,0.683-0.404,1.433-1.215,2.23c-0.809,0.811-1.556,1.209-2.238,1.209h-7.244
		c-0.683,0-1.429-0.405-2.238-1.216c-0.81-0.812-1.215-1.562-1.215-2.237v-12.967c0-0.724,0.419-1.48,1.259-2.271
		c0.841-0.791,1.633-1.183,2.374-1.183h6.885c0.74,0,1.532,0.392,2.374,1.169c0.84,0.777,1.259,1.534,1.259,2.257v3.974
		c-0.166,0.689-0.622,1.026-1.363,1.026c-0.694,0-1.159-0.337-1.384-1.026v-3.656c0-0.114-0.135-0.311-0.397-0.574
		c-0.267-0.264-0.461-0.398-0.581-0.398h-6.702c-0.122,0-0.313,0.128-0.578,0.385c-0.267,0.257-0.398,0.446-0.398,0.568v12.426
		c0,0.122,0.131,0.312,0.398,0.568c0.262,0.257,0.456,0.385,0.578,0.385h6.68c0.664,0,1-0.723,1-2.155v-0.479l-0.023-0.251
		c-0.032-0.013-1.509-0.033-4.436-0.047c-0.36,0-0.664-0.148-0.902-0.453c-0.211-0.256-0.319-0.561-0.319-0.905
		c0-0.777,0.343-1.243,1.025-1.412h6.333c0.198,0,0.426,0.129,0.683,0.379c0.26,0.25,0.387,0.473,0.387,0.669V137.634z"/>
	<path fill="#232328" d="M183.173,128.809v-3.885c0-0.183-0.146-0.386-0.442-0.615c-0.294-0.224-0.534-0.338-0.716-0.338h-7.492
		v5.771h7.492c0.182,0.014,0.422-0.088,0.716-0.317C183.028,129.194,183.173,128.991,183.173,128.809 M185.927,129.35
		c0,0.202-0.213,0.608-0.638,1.216c-0.426,0.615-0.676,0.946-0.75,0.993c-0.422,0.237-0.733,0.406-0.932,0.494
		c-0.392,0.188-0.727,0.304-0.997,0.364c-0.061,0.048-0.084,0.115-0.067,0.203c0.831,1.608,1.963,3.912,3.385,6.912
		c0.027,0.352-0.084,0.71-0.341,1.082c-0.26,0.364-0.554,0.52-0.882,0.459c-0.619,0.088-1.135-0.284-1.541-1.142
		c-1.453-2.967-2.686-5.439-3.713-7.42h-4.928v7.515c0,0.243-0.135,0.466-0.409,0.669c-0.273,0.209-0.545,0.331-0.819,0.378
		c-0.287,0.048-0.613-0.047-0.976-0.284c-0.363-0.236-0.546-0.5-0.546-0.783v-17.738c0-0.229,0.152-0.466,0.456-0.709
		c0.301-0.237,0.568-0.358,0.792-0.358h9.268c0.747,0,1.534,0.392,2.378,1.169c0.838,0.777,1.26,1.534,1.26,2.257V129.35z"/>
	<path fill="#232328" d="M200.712,137.35v-12.426c0-0.183-0.145-0.386-0.439-0.615c-0.297-0.229-0.538-0.338-0.716-0.338h-6.318
		c-0.196,0-0.442,0.108-0.736,0.338s-0.443,0.439-0.443,0.635v12.38c0,0.121,0.132,0.317,0.399,0.581
		c0.264,0.264,0.456,0.398,0.578,0.398h6.7c0.108,0,0.294-0.135,0.568-0.398C200.577,137.641,200.712,137.451,200.712,137.35
		 M203.462,137.641c0,0.683-0.406,1.426-1.216,2.229c-0.811,0.798-1.554,1.203-2.237,1.203h-7.247c-0.683,0-1.426-0.405-2.237-1.216
		c-0.811-0.812-1.213-1.555-1.213-2.244v-12.96c0-0.73,0.419-1.487,1.257-2.271c0.841-0.791,1.632-1.189,2.375-1.189h6.882
		c0.744,0,1.531,0.392,2.375,1.176c0.838,0.784,1.26,1.534,1.26,2.264V137.641z"/>
	<path fill="#232328" d="M221.089,137.647c0,0.676-0.406,1.419-1.213,2.223c-0.814,0.805-1.558,1.203-2.24,1.203h-7.247
		c-0.683,0-1.426-0.405-2.237-1.216c-0.811-0.812-1.216-1.555-1.216-2.244v-15.366c0.182-0.655,0.622-0.979,1.317-0.979
		c0.365,0,0.693,0.108,0.99,0.324c0.294,0.224,0.442,0.507,0.442,0.852v14.725c0,0.182,0.118,0.419,0.355,0.702
		c0.233,0.291,0.442,0.433,0.622,0.433h6.7c0.108,0,0.294-0.135,0.568-0.398c0.273-0.264,0.409-0.453,0.409-0.581v-15.063
		c0.183-0.662,0.639-0.993,1.365-0.993c0.696,0,1.159,0.331,1.385,1V137.647z"/>
	<path fill="#232328" d="M235.989,128.809v-3.885c0-0.183-0.149-0.386-0.443-0.615c-0.297-0.224-0.537-0.338-0.716-0.338h-7.494
		v5.771h7.494c0.179,0.014,0.419-0.088,0.716-0.317C235.84,129.194,235.989,128.991,235.989,128.809 M238.739,129.35
		c0,0.081-0.037,0.162-0.115,0.25c-0.074,0.095-0.118,0.162-0.135,0.209c-0.122,0.345-0.355,0.777-0.703,1.298
		c-0.169,0.25-0.554,0.554-1.163,0.892c-0.604,0.345-1.05,0.514-1.338,0.514h-7.95v7.494c-0.166,0.683-0.622,1.021-1.362,1.021
		c-0.699,0-1.159-0.338-1.385-1.021v-17.738c0-0.229,0.149-0.466,0.453-0.709c0.301-0.237,0.568-0.358,0.797-0.358h9.265
		c0.743,0,1.537,0.392,2.372,1.169c0.841,0.777,1.264,1.534,1.264,2.257V129.35z"/>
</g>
</svg>
